<svg xmlns="http://www.w3.org/2000/svg" xmlns:xlink="http://www.w3.org/1999/xlink" width="1640" zoomAndPan="magnify" viewBox="0 0 1230 149.999998" height="200" preserveAspectRatio="xMidYMid meet" version="1.0"><defs><g/><clipPath id="e7aeea6cc2"><path d="M 1038.226562 29.589844 L 1194 29.589844 L 1194 100 L 1038.226562 100 Z M 1038.226562 29.589844 " clip-rule="nonzero"/></clipPath><clipPath id="8acdcae406"><path d="M 1158 108 L 1185 108 L 1185 114.339844 L 1158 114.339844 Z M 1158 108 " clip-rule="nonzero"/></clipPath><clipPath id="21711e627b"><path d="M 12.46875 7.535156 L 268.691406 7.535156 L 268.691406 107.984375 L 12.46875 107.984375 Z M 12.46875 7.535156 " clip-rule="nonzero"/></clipPath><clipPath id="b781e88f20"><path d="M 140.40625 7.535156 C 69.746094 7.535156 12.46875 30.019531 12.46875 57.757812 C 12.46875 85.496094 69.746094 107.984375 140.40625 107.984375 C 211.066406 107.984375 268.34375 85.496094 268.34375 57.757812 C 268.34375 30.019531 211.066406 7.535156 140.40625 7.535156 Z M 140.40625 7.535156 " clip-rule="nonzero"/></clipPath><clipPath id="a4c702c9d6"><path d="M 0.46875 0.535156 L 256.558594 0.535156 L 256.558594 100.984375 L 0.46875 100.984375 Z M 0.46875 0.535156 " clip-rule="nonzero"/></clipPath><clipPath id="3dffda0d01"><path d="M 128.40625 0.535156 C 57.746094 0.535156 0.46875 23.019531 0.46875 50.757812 C 0.46875 78.496094 57.746094 100.984375 128.40625 100.984375 C 199.066406 100.984375 256.34375 78.496094 256.34375 50.757812 C 256.34375 23.019531 199.066406 0.535156 128.40625 0.535156 Z M 128.40625 0.535156 " clip-rule="nonzero"/></clipPath><clipPath id="6c08180407"><rect x="0" width="257" y="0" height="101"/></clipPath><clipPath id="357a287411"><rect x="0" width="184" y="0" height="49"/></clipPath><clipPath id="1771fa2d6f"><rect x="0" width="172" y="0" height="41"/></clipPath></defs><rect x="-123" width="1476" fill="#ffffff" y="-15" height="179.999997" fill-opacity="1"/><rect x="-123" width="1476" fill="#003093" y="-15" height="179.999997" fill-opacity="1"/><g clip-path="url(#e7aeea6cc2)"><path fill="#8dcbf2" d="M 1180.75 84.152344 C 1182.347656 84.09375 1183.929688 83.953125 1185.507812 83.738281 C 1185.507812 83.65625 1185.507812 83.5 1185.527344 83.402344 C 1179.230469 81.980469 1172.96875 80.4375 1166.691406 78.957031 C 1164.714844 78.445312 1162.722656 78.050781 1160.765625 77.476562 C 1160.699219 77.03125 1160.675781 76.585938 1160.6875 76.132812 C 1160.707031 73.507812 1160.707031 70.882812 1160.707031 68.277344 C 1168.066406 70.5 1175.429688 72.679688 1182.804688 74.8125 C 1183.691406 75.046875 1184.582031 75.402344 1185.507812 75.484375 L 1185.785156 75.363281 C 1185.605469 75.148438 1185.429688 74.910156 1185.152344 74.851562 C 1180.078125 73.371094 1175.023438 71.789062 1169.96875 70.25 C 1166.671875 69.183594 1163.3125 68.277344 1160.035156 67.109375 C 1160.316406 67 1160.609375 66.914062 1160.90625 66.855469 C 1163.292969 66.417969 1165.683594 66.105469 1168.054688 65.589844 L 1167.953125 65.332031 L 1167.402344 65.097656 L 1142.128906 56.074219 C 1134.703125 53.367188 1127.21875 50.742188 1119.835938 47.917969 C 1119.855469 45.3125 1119.835938 42.683594 1119.835938 40.078125 C 1119.835938 39.386719 1119.835938 38.695312 1119.855469 38.023438 C 1119.875 37.355469 1119.855469 36.308594 1119.835938 35.4375 C 1122.617188 36.644531 1125.402344 37.886719 1128.207031 39.03125 C 1133.445312 41.257812 1138.679688 43.5 1143.902344 45.765625 C 1143.882812 46.59375 1143.863281 47.425781 1143.925781 48.253906 C 1143.964844 48.746094 1143.984375 49.242188 1143.984375 49.734375 L 1144.734375 50.03125 L 1144.910156 49.933594 C 1144.949219 48.648438 1144.910156 47.363281 1144.910156 46.082031 C 1146.984375 46.929688 1149.019531 47.878906 1151.089844 48.726562 C 1151.050781 49.992188 1150.914062 51.234375 1150.835938 52.5 L 1151.132812 52.636719 C 1151.089844 51.375 1151.089844 50.109375 1151.191406 48.847656 C 1152.433594 48.886719 1153.621094 48.3125 1154.84375 48.09375 C 1153.9375 47.875 1153.0625 47.566406 1152.21875 47.167969 C 1148.40625 45.488281 1144.554688 43.890625 1140.746094 42.210938 L 1120.109375 33.1875 C 1119.855469 33.050781 1119.914062 32.675781 1119.792969 32.457031 C 1121.136719 32.929688 1122.421875 33.582031 1123.722656 34.136719 L 1152.886719 46.652344 C 1153.433594 46.890625 1153.996094 46.976562 1154.585938 46.910156 C 1154.753906 46.824219 1154.890625 46.707031 1155 46.554688 L 1142.207031 40.96875 C 1134.742188 37.730469 1127.335938 34.371094 1119.875 31.152344 C 1119.855469 30.777344 1119.835938 30.421875 1119.835938 30.046875 C 1122.835938 31.234375 1125.757812 32.613281 1128.757812 33.859375 C 1129.90625 34.273438 1130.972656 34.925781 1132.15625 35.261719 C 1130.003906 34.332031 1127.871094 33.386719 1125.738281 32.417969 C 1123.605469 31.449219 1121.609375 30.660156 1119.65625 29.59375 C 1110.632812 32.675781 1101.570312 35.695312 1092.566406 38.796875 C 1092.050781 39.011719 1091.421875 39.070312 1091.003906 39.425781 C 1090.925781 42.507812 1091.023438 45.585938 1090.945312 48.667969 C 1089.269531 49.160156 1087.570312 49.636719 1085.890625 50.148438 C 1085.554688 50.226562 1085.21875 50.367188 1084.882812 50.269531 C 1077.894531 48.214844 1070.902344 46.257812 1063.933594 44.167969 C 1058.148438 46.359375 1052.324219 48.449219 1046.519531 50.601562 C 1045.648438 50.9375 1044.742188 51.214844 1043.890625 51.609375 L 1043.734375 52.023438 C 1044.328125 51.984375 1044.878906 51.730469 1045.433594 51.53125 C 1051.492188 49.300781 1057.59375 47.148438 1063.65625 44.917969 C 1063.757812 53.800781 1063.675781 62.6875 1063.675781 71.574219 C 1061.820312 71.910156 1059.984375 72.363281 1058.128906 72.71875 C 1058.089844 69.5 1058.148438 66.28125 1058.089844 63.0625 L 1056.925781 63.320312 C 1057.003906 66.539062 1056.925781 69.757812 1056.984375 72.996094 L 1055.523438 73.230469 C 1055.523438 66.875 1055.5625 60.496094 1055.484375 54.136719 C 1051.808594 55.382812 1048.117188 56.644531 1044.425781 57.851562 C 1044.191406 57.929688 1043.980469 58.046875 1043.792969 58.207031 C 1044.40625 58.582031 1045.117188 58.660156 1045.789062 58.816406 C 1047.386719 59.152344 1048.964844 59.527344 1050.566406 59.84375 C 1050.664062 64.664062 1050.488281 69.480469 1050.625 74.277344 C 1046.636719 75.109375 1042.628906 75.917969 1038.640625 76.765625 C 1038.226562 76.726562 1038.402344 77.140625 1038.382812 77.398438 C 1055.246094 74.0625 1072.03125 70.605469 1088.832031 67.171875 C 1097.167969 65.433594 1105.519531 63.753906 1113.832031 61.9375 C 1113.8125 65.511719 1113.832031 69.085938 1113.851562 72.660156 C 1093.019531 75.898438 1072.167969 78.976562 1051.316406 82.039062 C 1046.972656 82.730469 1042.589844 83.242188 1038.246094 83.953125 C 1038.421875 84.132812 1038.582031 84.367188 1038.855469 84.367188 L 1041.226562 84.644531 C 1046.378906 85.039062 1051.515625 85.554688 1056.667969 85.929688 C 1056.746094 90.273438 1056.726562 94.617188 1056.667969 98.960938 L 1058.167969 98.960938 C 1058.1875 97.105469 1058.167969 95.25 1058.1875 93.410156 C 1058.207031 91.574219 1058.246094 89.441406 1058.246094 87.449219 C 1059.964844 87.3125 1061.683594 87.113281 1063.421875 86.957031 C 1063.421875 88.0625 1063.441406 89.1875 1063.402344 90.292969 C 1063.421875 93.15625 1063.421875 96.039062 1063.421875 98.921875 C 1076.234375 98.546875 1089.050781 98.210938 1101.847656 97.738281 C 1104.867188 97.558594 1107.90625 97.597656 1110.929688 97.402344 C 1116.851562 97.144531 1122.796875 96.984375 1128.71875 96.730469 C 1131.148438 96.648438 1133.578125 96.472656 1136.027344 96.648438 C 1138.472656 96.828125 1141.160156 96.867188 1143.707031 97.164062 C 1146.253906 97.460938 1149.019531 97.480469 1151.683594 97.539062 C 1155.199219 97.695312 1158.714844 97.914062 1162.226562 98.132812 L 1162.328125 98.683594 C 1163.210938 98.628906 1164.09375 98.660156 1164.972656 98.78125 C 1167.894531 98.941406 1170.835938 98.960938 1173.761719 99.15625 C 1176.683594 99.355469 1179.484375 99.335938 1182.328125 99.535156 L 1182.488281 98.882812 C 1177.550781 98.566406 1172.613281 98.328125 1167.699219 98.011719 C 1167.699219 94.953125 1167.71875 91.871094 1167.71875 88.8125 C 1176.089844 88.238281 1184.480469 87.804688 1192.875 87.269531 C 1193.230469 87.230469 1193.625 87.269531 1193.921875 87.035156 C 1189.554688 85.988281 1185.132812 85.160156 1180.75 84.152344 Z M 1055.148438 73.351562 C 1053.667969 73.546875 1052.226562 74.042969 1050.722656 74.179688 C 1050.664062 71.613281 1050.722656 69.046875 1050.703125 66.480469 C 1050.683594 63.910156 1050.742188 61.246094 1050.824219 58.640625 C 1052.265625 58.246094 1053.6875 57.75 1055.085938 57.257812 C 1055.207031 62.628906 1055.109375 68 1055.148438 73.351562 Z M 1150.359375 66.914062 L 1153.972656 68.15625 C 1152.769531 68.433594 1151.546875 68.613281 1150.339844 68.808594 C 1150.355469 68.175781 1150.359375 67.546875 1150.359375 66.914062 Z M 1130.140625 62.136719 C 1130.179688 63.160156 1130.160156 64.207031 1130.140625 65.234375 C 1126.574219 64.261719 1123.007812 63.304688 1119.4375 62.371094 C 1119.425781 61.265625 1119.425781 60.160156 1119.4375 59.054688 C 1123.011719 60.023438 1126.546875 61.1875 1130.140625 62.136719 Z M 1091.242188 39.527344 C 1100.660156 36.308594 1110.121094 33.148438 1119.539062 29.929688 C 1119.558594 30.363281 1119.578125 30.816406 1119.578125 31.253906 C 1112.746094 33.484375 1105.953125 35.8125 1099.121094 38.085938 C 1096.789062 38.835938 1094.519531 39.722656 1092.171875 40.394531 C 1092.109375 43.039062 1092.289062 45.6875 1092.152344 48.332031 L 1091.242188 48.609375 C 1091.203125 45.585938 1091.28125 42.546875 1091.242188 39.527344 Z M 1072.324219 59.882812 L 1072.324219 60.296875 C 1071.199219 60.554688 1070.09375 60.890625 1068.96875 61.128906 C 1069.066406 59.882812 1068.730469 58.660156 1068.8125 57.394531 L 1068.691406 58.164062 C 1067.765625 59.292969 1066.953125 60.515625 1066.007812 61.640625 C 1065.632812 62.175781 1065.277344 62.726562 1064.703125 63.042969 L 1064.46875 63.773438 C 1064.132812 62.136719 1064.328125 60.457031 1064.25 58.796875 C 1064.289062 57.988281 1064.09375 57.160156 1064.308594 56.367188 C 1064.328125 53.921875 1064.171875 51.472656 1064.308594 49.042969 C 1064.25 47.71875 1064.269531 46.417969 1064.25 45.09375 C 1066.460938 45.707031 1068.632812 46.4375 1070.863281 47.007812 C 1074.0625 47.898438 1077.261719 48.824219 1080.460938 49.8125 L 1080.539062 49.773438 C 1081.390625 50.03125 1082.238281 50.308594 1083.105469 50.503906 C 1083.425781 50.546875 1083.710938 50.671875 1083.957031 50.878906 C 1082.710938 51.136719 1081.507812 51.550781 1080.285156 51.945312 C 1079.453125 52.242188 1078.566406 52.398438 1077.777344 52.855469 C 1082.910156 51.375 1088.003906 49.8125 1093.117188 48.253906 C 1093.097656 45.863281 1093.078125 43.476562 1093.117188 41.085938 C 1100.804688 38.519531 1108.492188 35.972656 1116.179688 33.445312 C 1117.308594 33.089844 1118.414062 32.65625 1119.558594 32.378906 L 1119.558594 33.128906 C 1113.199219 35.28125 1106.820312 37.3125 1100.445312 39.40625 C 1098.84375 39.882812 1097.304688 40.511719 1095.703125 40.929688 C 1095.746094 43.082031 1095.765625 45.230469 1095.746094 47.382812 C 1096.691406 47.070312 1097.679688 46.832031 1098.628906 46.535156 C 1098.609375 45.015625 1098.628906 43.515625 1098.585938 41.992188 C 1105.597656 39.742188 1112.566406 37.453125 1119.558594 35.261719 C 1119.539062 39.488281 1119.539062 43.691406 1119.597656 47.917969 C 1105.578125 51.609375 1091.558594 55.261719 1077.558594 59.015625 C 1077.144531 58.285156 1077.222656 57.160156 1076.316406 56.824219 C 1076.316406 56.703125 1076.335938 56.429688 1076.335938 56.308594 L 1075.425781 56.308594 C 1075.171875 56.496094 1074.894531 56.640625 1074.597656 56.746094 C 1074.519531 56.921875 1074.476562 57.121094 1074.417969 57.316406 C 1074.101562 56.902344 1073.628906 57.140625 1073.253906 57.335938 C 1073.351562 57.59375 1073.511719 57.832031 1073.550781 58.105469 C 1073.273438 58.582031 1072.878906 58.957031 1072.523438 59.390625 L 1073.054688 59.804688 Z M 1073.53125 69.519531 C 1073.570312 67.289062 1073.511719 65.058594 1073.53125 62.824219 C 1074.972656 62.53125 1076.394531 62.175781 1077.796875 61.757812 C 1077.835938 64.050781 1077.796875 66.359375 1077.835938 68.652344 C 1076.394531 68.925781 1074.972656 69.242188 1073.53125 69.5 Z M 1099.199219 64.109375 C 1092.386719 65.628906 1085.496094 66.914062 1078.683594 68.472656 C 1078.664062 66.164062 1078.644531 63.851562 1078.683594 61.542969 C 1085.515625 59.941406 1092.308594 58.105469 1099.140625 56.429688 C 1099.238281 58.976562 1099.21875 61.542969 1099.21875 64.089844 Z M 1105.203125 62.886719 C 1103.78125 63.140625 1102.359375 63.476562 1100.9375 63.714844 L 1100.9375 63.890625 L 1100.285156 63.953125 C 1100.285156 63.214844 1100.285156 62.484375 1100.285156 61.757812 L 1100.976562 61.757812 L 1105.203125 60.792969 C 1105.242188 61.484375 1105.222656 62.175781 1105.222656 62.867188 Z M 1106.839844 62.550781 C 1106.859375 61.699219 1106.859375 60.832031 1106.902344 59.984375 C 1108.398438 59.742188 1109.878906 59.425781 1111.34375 59.035156 C 1111.363281 59.902344 1111.363281 60.773438 1111.363281 61.621094 C 1109.84375 61.878906 1108.34375 62.214844 1106.839844 62.53125 Z M 1111.894531 61.503906 C 1111.9375 60.652344 1111.894531 59.785156 1111.917969 58.917969 C 1111.875 58.621094 1111.855469 58.324219 1111.855469 58.027344 C 1114.148438 57.59375 1116.4375 57.019531 1118.726562 56.566406 L 1119.125 56.507812 C 1119.203125 58.441406 1119.203125 60.359375 1119.203125 62.292969 C 1117.640625 61.859375 1116.082031 61.464844 1114.542969 60.988281 C 1113.632812 61.007812 1112.765625 61.304688 1111.894531 61.484375 Z M 1072.484375 98.425781 C 1071.339844 98.386719 1070.171875 98.566406 1069.027344 98.527344 C 1069.007812 94.457031 1068.96875 90.410156 1069.046875 86.34375 L 1068.96875 85.871094 C 1070.152344 85.769531 1071.320312 85.632812 1072.503906 85.515625 C 1072.511719 85.914062 1072.5 86.316406 1072.464844 86.71875 C 1072.542969 90.609375 1072.523438 94.519531 1072.484375 98.40625 Z M 1077.953125 98.191406 C 1076.492188 98.210938 1075.050781 98.269531 1073.589844 98.289062 C 1073.550781 93.964844 1073.550781 89.660156 1073.589844 85.335938 C 1073.570312 84.527344 1073.550781 83.738281 1073.570312 82.925781 L 1073.984375 83.027344 C 1075.308594 82.90625 1076.609375 82.691406 1077.914062 82.492188 C 1077.914062 83.300781 1077.894531 84.113281 1077.914062 84.921875 C 1077.972656 89.34375 1077.992188 93.765625 1077.953125 98.191406 Z M 1084.3125 97.894531 C 1082.4375 97.972656 1080.558594 98.09375 1078.664062 98.09375 C 1078.683594 93.6875 1078.644531 89.285156 1078.683594 84.882812 C 1078.671875 84.050781 1078.671875 83.214844 1078.683594 82.375 C 1080.558594 82.175781 1082.4375 81.921875 1084.292969 81.683594 C 1084.292969 82.511719 1084.3125 83.339844 1084.292969 84.191406 C 1084.292969 88.773438 1084.332031 93.332031 1084.3125 97.894531 Z M 1085.0625 97.914062 C 1085.003906 93.332031 1085.042969 88.730469 1085.042969 84.152344 C 1085.042969 83.320312 1085.003906 82.472656 1085.0625 81.644531 L 1089.601562 81.109375 L 1091.023438 80.933594 C 1091.105469 86.5 1091.042969 92.089844 1091.105469 97.65625 C 1089.109375 97.675781 1087.097656 97.855469 1085.0625 97.933594 Z M 1098.390625 97.359375 C 1096.199219 97.421875 1094.007812 97.460938 1091.835938 97.617188 C 1091.808594 92.851562 1091.808594 88.085938 1091.835938 83.320312 C 1091.855469 82.472656 1091.835938 81.644531 1091.835938 80.792969 C 1094.03125 80.542969 1096.226562 80.273438 1098.410156 79.984375 C 1098.410156 80.457031 1098.410156 80.933594 1098.390625 81.40625 C 1098.371094 81.878906 1098.410156 82.195312 1098.410156 82.570312 C 1098.429688 87.527344 1098.488281 92.464844 1098.410156 97.382812 Z M 1105.773438 81.820312 C 1105.753906 86.894531 1105.796875 91.96875 1105.753906 97.066406 C 1103.542969 97.046875 1101.351562 97.300781 1099.160156 97.28125 C 1099.160156 92.367188 1099.199219 87.46875 1099.160156 82.550781 C 1099.121094 81.664062 1099.140625 80.792969 1099.160156 79.90625 C 1101.371094 79.589844 1103.601562 79.351562 1105.816406 79.058594 C 1105.816406 80.003906 1105.816406 80.914062 1105.773438 81.839844 Z M 1112.410156 96.710938 C 1110.554688 96.886719 1108.679688 96.867188 1106.800781 96.964844 C 1106.78125 91.890625 1106.761719 86.816406 1106.820312 81.722656 C 1106.78125 80.792969 1106.800781 79.847656 1106.820312 78.917969 C 1108.679688 78.703125 1110.535156 78.464844 1112.410156 78.304688 C 1112.390625 79.214844 1112.371094 80.125 1112.410156 81.03125 C 1112.410156 86.304688 1112.488281 91.515625 1112.410156 96.75 Z M 1128.402344 95.78125 C 1126.980469 95.722656 1125.582031 96.078125 1124.160156 96 C 1121.925781 96.195312 1119.675781 96.15625 1117.445312 96.355469 C 1115.867188 96.316406 1114.285156 96.628906 1112.707031 96.550781 C 1112.707031 96.097656 1112.628906 95.625 1112.746094 95.1875 C 1112.785156 94.121094 1112.648438 93.058594 1112.726562 91.992188 C 1112.667969 88.730469 1112.6875 85.453125 1112.6875 82.175781 C 1117.9375 82.828125 1123.171875 83.617188 1128.402344 84.328125 C 1128.402344 85.316406 1128.402344 86.304688 1128.402344 87.269531 C 1128.523438 88.96875 1128.34375 90.6875 1128.421875 92.386719 C 1128.503906 93.570312 1128.382812 94.695312 1128.421875 95.820312 Z M 1132.945312 95.761719 C 1131.957031 95.742188 1130.972656 95.742188 1130.003906 95.78125 C 1130.023438 94.203125 1129.746094 92.621094 1129.984375 91.0625 C 1129.90625 88.851562 1129.90625 86.660156 1129.90625 84.449219 C 1130.929688 84.625 1131.9375 84.761719 1132.984375 84.84375 C 1133.082031 86.402344 1133.003906 87.941406 1133.003906 89.503906 C 1133.203125 91.613281 1132.945312 93.707031 1132.964844 95.800781 Z M 1135.453125 76.785156 C 1135.195312 76.707031 1134.859375 76.746094 1134.683594 76.507812 C 1132.808594 76.234375 1130.949219 75.898438 1129.113281 75.542969 L 1129.113281 75.503906 C 1124.21875 74.59375 1119.339844 73.585938 1114.464844 72.621094 C 1114.449219 69.078125 1114.449219 65.53125 1114.464844 61.976562 C 1120.566406 63.597656 1126.644531 65.253906 1132.746094 66.816406 C 1134.542969 67.269531 1136.300781 67.78125 1138.097656 68.234375 L 1138.136719 68.136719 C 1139.460938 68.53125 1140.824219 68.867188 1142.148438 69.261719 C 1142.523438 69.382812 1142.777344 69.675781 1143.074219 69.933594 C 1142.460938 70.566406 1142.304688 71.453125 1142.027344 72.246094 C 1141.316406 72.894531 1141.398438 74.003906 1140.726562 74.691406 C 1140.707031 74.96875 1140.707031 75.265625 1140.6875 75.542969 L 1140.351562 75.859375 L 1139.816406 77.457031 C 1138.355469 77.378906 1136.914062 77.023438 1135.453125 76.804688 Z M 1143.054688 94.792969 L 1138.097656 94.792969 C 1138 92.996094 1137.902344 91.199219 1138.019531 89.402344 C 1138.058594 88.398438 1138.019531 87.390625 1138.019531 86.382812 L 1143.195312 87.054688 C 1143.21875 87.75 1143.21875 88.441406 1143.195312 89.128906 L 1143.253906 89.226562 C 1143.253906 91.121094 1143.292969 92.976562 1143.054688 94.832031 Z M 1137.980469 67.308594 C 1137.980469 66.992188 1138 66.695312 1138 66.378906 C 1138.078125 65.273438 1138.019531 64.167969 1138.019531 63.082031 C 1139.621094 63.597656 1141.21875 64.128906 1142.839844 64.582031 L 1142.9375 64.542969 C 1145.148438 65.234375 1147.339844 65.925781 1149.511719 66.675781 C 1149.609375 67.445312 1149.492188 68.214844 1149.453125 68.96875 C 1148.386719 69.007812 1147.339844 69.28125 1146.292969 69.363281 C 1145.246094 69.441406 1144.714844 68.988281 1143.925781 68.808594 C 1141.96875 68.277344 1139.957031 67.820312 1137.980469 67.308594 Z M 1149.511719 91.96875 C 1149.53125 93.472656 1149.273438 94.972656 1149.355469 96.472656 L 1149.234375 96.175781 C 1148.386719 96.175781 1147.519531 96.234375 1146.6875 96.097656 C 1146.410156 96.050781 1146.140625 96.074219 1145.878906 96.175781 L 1145.503906 96 L 1145.148438 96.195312 L 1144.832031 96 C 1144.773438 93.390625 1144.59375 90.765625 1144.773438 88.160156 C 1144.753906 87.863281 1144.753906 87.566406 1144.753906 87.269531 C 1146.136719 87.527344 1147.519531 87.707031 1148.917969 87.863281 L 1149.511719 87.804688 C 1149.589844 89.1875 1149.511719 90.570312 1149.53125 91.949219 Z M 1154.269531 96.628906 C 1153.035156 96.398438 1151.792969 96.324219 1150.539062 96.414062 C 1150.460938 96.054688 1150.410156 95.691406 1150.382812 95.328125 C 1150.300781 92.890625 1150.269531 90.457031 1150.28125 88.019531 C 1151.703125 88.082031 1153.085938 88.398438 1154.488281 88.554688 C 1154.546875 91.238281 1154.566406 93.945312 1154.269531 96.609375 Z M 1154.46875 77.851562 C 1154.351562 77.28125 1154.25 76.6875 1154.132812 76.09375 C 1154.488281 75.679688 1153.996094 75.207031 1153.855469 74.8125 L 1154.289062 74.496094 L 1148.800781 69.875 C 1152.53125 69.203125 1156.285156 68.75 1160.015625 68.117188 C 1160.054688 71.257812 1160.015625 74.398438 1160.035156 77.515625 C 1159.34375 77.535156 1158.65625 77.773438 1157.984375 77.65625 C 1156.835938 77.890625 1155.652344 77.832031 1154.488281 77.851562 Z M 1160.6875 97.617188 C 1159.449219 97.65625 1158.210938 97.609375 1156.976562 97.480469 C 1156.898438 96.058594 1156.898438 94.617188 1156.957031 93.195312 C 1157.015625 91.773438 1156.976562 90.824219 1156.976562 89.640625 C 1158.179688 89.839844 1159.40625 89.9375 1160.628906 90.113281 C 1160.648438 91.121094 1160.628906 92.109375 1160.628906 93.117188 C 1160.746094 94.597656 1160.707031 96.097656 1160.707031 97.617188 Z M 1160.6875 97.617188 " fill-opacity="1" fill-rule="nonzero"/></g><path fill="#8dcbf2" d="M 1124 98.84375 C 1124.59375 98.683594 1124.671875 99.375 1124.949219 99.710938 C 1125.835938 99.730469 1125.757812 98.425781 1125.085938 98.152344 C 1124.414062 97.875 1123.824219 98.03125 1123.210938 98.03125 L 1099.890625 98.703125 C 1089.761719 99.058594 1079.632812 99.257812 1069.523438 99.613281 C 1064.03125 99.75 1058.5625 99.910156 1053.074219 100.085938 C 1053.074219 100.285156 1053.054688 100.5 1053.054688 100.699219 C 1068.679688 100.34375 1084.304688 99.941406 1099.929688 99.492188 C 1107.925781 99.257812 1115.964844 98.980469 1124 98.84375 Z M 1124 98.84375 " fill-opacity="1" fill-rule="nonzero"/><path fill="#8dcbf2" d="M 1156.167969 101.015625 C 1159.71875 101.054688 1163.253906 101.289062 1166.808594 101.25 L 1166.394531 100.679688 C 1168.527344 100.640625 1170.640625 100.777344 1172.773438 100.816406 C 1176.621094 100.835938 1180.472656 101.074219 1184.324219 101.074219 L 1184.835938 100.953125 C 1184.238281 100.832031 1183.632812 100.773438 1183.019531 100.777344 L 1182.960938 100.183594 C 1180.691406 100.125 1178.441406 99.949219 1176.167969 99.867188 C 1173.523438 99.867188 1170.898438 99.554688 1168.25 99.433594 C 1166.117188 99.492188 1164.003906 99.136719 1161.894531 99.316406 C 1160.90625 99.375 1159.9375 99.199219 1158.949219 99.179688 C 1156.699219 99.199219 1154.46875 98.882812 1152.21875 98.941406 C 1149.964844 99 1147.359375 98.800781 1144.929688 98.566406 C 1143.113281 98.566406 1141.316406 98.425781 1139.519531 98.289062 C 1137.722656 98.152344 1135.945312 98.308594 1134.167969 98.113281 C 1134.128906 98.921875 1134.148438 99.710938 1134.128906 100.519531 C 1136.480469 100.519531 1138.828125 100.519531 1141.160156 100.558594 C 1143.824219 100.757812 1146.492188 100.699219 1149.15625 100.816406 C 1151.507812 100.796875 1153.835938 100.953125 1156.167969 101.015625 Z M 1156.167969 101.015625 " fill-opacity="1" fill-rule="nonzero"/><path fill="#8dcbf2" d="M 1127.535156 102.535156 C 1116.28125 102.613281 1105.023438 102.613281 1093.769531 102.730469 C 1082.515625 102.851562 1071.003906 102.851562 1059.609375 102.890625 C 1054.691406 102.890625 1049.777344 102.988281 1044.859375 102.929688 C 1045.550781 103.542969 1046.339844 103.996094 1047.089844 104.507812 C 1047.484375 104.726562 1047.878906 105.0625 1048.355469 105.023438 L 1070.09375 105.023438 C 1071.574219 104.964844 1072.878906 105.753906 1074.082031 106.484375 C 1077.300781 108.417969 1080.597656 110.253906 1083.855469 112.152344 C 1084.035156 112.566406 1084.273438 112.960938 1084.6875 113.175781 C 1085.398438 112.863281 1085.398438 111.796875 1084.765625 111.402344 C 1084.132812 111.003906 1083.105469 110.453125 1082.296875 109.960938 C 1079.078125 108.183594 1076 106.167969 1072.699219 104.546875 C 1074.140625 104.609375 1075.5625 104.628906 1077.003906 104.609375 C 1087.472656 104.570312 1097.9375 104.589844 1108.402344 104.527344 C 1118.867188 104.46875 1129.90625 104.449219 1140.664062 104.488281 C 1140.664062 103.835938 1140.664062 103.207031 1140.726562 102.554688 C 1136.320312 102.4375 1131.9375 102.554688 1127.535156 102.535156 Z M 1127.535156 102.535156 " fill-opacity="1" fill-rule="nonzero"/><path fill="#8dcbf2" d="M 1185.6875 103.167969 C 1184.34375 103.265625 1183 103.167969 1181.65625 103.148438 C 1177.53125 103.027344 1173.40625 103.027344 1169.296875 102.871094 L 1169.296875 102.554688 C 1167.304688 102.496094 1165.289062 102.535156 1163.292969 102.476562 C 1160.410156 102.238281 1157.507812 102.375 1154.605469 102.316406 L 1141.851562 102.316406 C 1141.832031 103.167969 1141.832031 104.035156 1141.8125 104.882812 C 1144.8125 105.003906 1147.832031 104.765625 1150.835938 105.042969 C 1154.804688 104.785156 1158.773438 105.199219 1162.742188 105.003906 C 1167.34375 104.84375 1171.921875 105.140625 1176.523438 104.964844 C 1180.59375 104.6875 1184.660156 104.863281 1188.726562 104.746094 C 1188.746094 104.332031 1188.765625 103.917969 1188.804688 103.523438 L 1188.804688 103.34375 L 1188.746094 103.34375 C 1187.71875 103.265625 1186.691406 103.226562 1185.6875 103.167969 Z M 1185.6875 103.167969 " fill-opacity="1" fill-rule="nonzero"/><path fill="#8dcbf2" d="M 1176.425781 108.992188 C 1176.386719 108.0625 1176.367188 107.136719 1176.367188 106.207031 C 1173.503906 106.386719 1170.621094 106.207031 1167.738281 106.34375 C 1166.175781 106.542969 1164.617188 106.445312 1163.058594 106.484375 L 1155.96875 106.484375 C 1155.039062 106.484375 1154.113281 106.445312 1153.203125 106.5625 C 1152.296875 106.679688 1150.796875 106.640625 1149.589844 106.699219 C 1149.589844 107.589844 1149.570312 108.457031 1149.589844 109.347656 C 1152.789062 109.347656 1155.988281 109.523438 1159.167969 109.367188 C 1164.914062 109.1875 1170.679688 109.089844 1176.425781 108.992188 Z M 1176.425781 108.992188 " fill-opacity="1" fill-rule="nonzero"/><path fill="#8dcbf2" d="M 1107.195312 110.136719 C 1105.734375 109.269531 1104.3125 108.101562 1102.558594 107.90625 C 1100.800781 107.707031 1098.804688 107.785156 1096.929688 107.746094 C 1092.527344 107.726562 1088.101562 107.550781 1083.699219 107.511719 C 1083.320312 107.488281 1082.945312 107.515625 1082.574219 107.589844 C 1082.414062 107.925781 1082.535156 108.300781 1082.613281 108.636719 C 1089.109375 108.851562 1095.605469 108.894531 1102.082031 109.050781 C 1103.683594 109.03125 1105.0625 109.898438 1106.328125 110.789062 C 1107.117188 111.378906 1108.222656 111.675781 1108.578125 112.703125 L 1109.230469 112.761719 C 1109.367188 112.347656 1109.527344 111.855469 1109.210938 111.5 C 1108.894531 111.144531 1107.847656 110.609375 1107.195312 110.136719 Z M 1107.195312 110.136719 " fill-opacity="1" fill-rule="nonzero"/><g clip-path="url(#8acdcae406)"><path fill="#8dcbf2" d="M 1183.121094 112.132812 L 1183.039062 111.714844 C 1182.882812 110.789062 1183.039062 109.820312 1182.863281 108.871094 L 1182.824219 109.207031 C 1182.785156 109.484375 1182.765625 109.761719 1182.722656 110.039062 C 1181.796875 110.039062 1180.847656 110 1179.921875 110.097656 C 1178.144531 110.335938 1176.328125 110.15625 1174.550781 110.394531 C 1172.179688 110.375 1169.8125 110.667969 1167.441406 110.808594 C 1165.78125 110.769531 1164.164062 111.066406 1162.503906 111.023438 C 1161.046875 111.167969 1159.585938 111.234375 1158.121094 111.222656 C 1158.101562 112.152344 1158.101562 113.078125 1158.101562 114.007812 C 1159.839844 114.007812 1161.578125 114.046875 1163.3125 113.96875 C 1164.578125 113.867188 1165.863281 114.007812 1167.125 113.808594 C 1167.75 113.671875 1168.382812 113.613281 1169.019531 113.632812 C 1170.207031 113.652344 1171.390625 113.414062 1172.574219 113.433594 C 1174.46875 113.453125 1176.367188 113.175781 1178.261719 113.199219 C 1180.15625 113.21875 1182.390625 113.097656 1184.441406 112.820312 L 1184.304688 112.347656 Z M 1183.121094 112.132812 " fill-opacity="1" fill-rule="nonzero"/></g><g clip-path="url(#21711e627b)"><g clip-path="url(#b781e88f20)"><g transform="matrix(1, 0, 0, 1, 12, 7)"><g clip-path="url(#6c08180407)"><g clip-path="url(#a4c702c9d6)"><g clip-path="url(#3dffda0d01)"><path fill="#f4c304" d="M 0.46875 0.535156 L 256.296875 0.535156 L 256.296875 100.984375 L 0.46875 100.984375 Z M 0.46875 0.535156 " fill-opacity="1" fill-rule="nonzero"/></g></g></g></g></g></g><g transform="matrix(1, 0, 0, 1, 48, 33)"><g clip-path="url(#357a287411)"><g fill="#003093" fill-opacity="1"><g transform="translate(1.695325, 39.996861)"><g><path d="M 13.578125 0 L -0.28125 0 L 12.234375 -36.046875 L 26.734375 -36.046875 L 39.59375 0 L 25.71875 0 L 24.53125 -4.5 L 14.625 -4.5 Z M 22.234375 -13.046875 C 21.023438 -17.960938 20.351562 -20.832031 20.21875 -21.65625 L 19.84375 -24.046875 L 19.359375 -24.046875 L 16.96875 -13.046875 Z M 22.234375 -13.046875 "/></g></g></g><g fill="#003093" fill-opacity="1"><g transform="translate(40.464788, 39.996861)"><g><path d="M 41.078125 -21.234375 L 41.015625 -19.5 C 41.015625 -15.9375 40.640625 -13.09375 39.890625 -10.96875 C 39.148438 -8.851562 37.867188 -6.910156 36.046875 -5.140625 C 34.234375 -3.367188 32.039062 -1.972656 29.46875 -0.953125 C 26.90625 0.0664062 24.222656 0.578125 21.421875 0.578125 C 17.753906 0.578125 14.40625 -0.15625 11.375 -1.625 C 8.351562 -3.09375 5.957031 -5.21875 4.1875 -8 C 2.414062 -10.789062 1.53125 -14.050781 1.53125 -17.78125 C 1.53125 -21.445312 2.363281 -24.710938 4.03125 -27.578125 C 5.707031 -30.453125 8.066406 -32.675781 11.109375 -34.25 C 14.160156 -35.832031 17.628906 -36.625 21.515625 -36.625 C 24.097656 -36.625 26.65625 -36.175781 29.1875 -35.28125 C 31.71875 -34.394531 33.785156 -33.320312 35.390625 -32.0625 C 37.003906 -30.800781 38.273438 -29.226562 39.203125 -27.34375 L 26.96875 -22.859375 C 26.457031 -23.773438 25.765625 -24.460938 24.890625 -24.921875 C 24.015625 -25.390625 23.050781 -25.625 22 -25.625 C 19.832031 -25.625 18.078125 -24.8125 16.734375 -23.1875 C 15.390625 -21.5625 14.71875 -19.585938 14.71875 -17.265625 C 14.71875 -15.128906 15.347656 -13.3125 16.609375 -11.8125 C 17.867188 -10.3125 19.488281 -9.5625 21.46875 -9.5625 C 22.707031 -9.5625 23.828125 -9.847656 24.828125 -10.421875 C 25.835938 -10.992188 26.488281 -11.757812 26.78125 -12.71875 L 20.84375 -12.71875 L 20.84375 -21.234375 Z M 41.078125 -21.234375 "/></g></g></g><g fill="#003093" fill-opacity="1"><g transform="translate(83.106422, 39.996861)"><g><path d="M 2.765625 -36.046875 L 27.015625 -36.046875 L 27.015625 -26.203125 L 15.96875 -26.203125 L 15.96875 -22.765625 L 26.0625 -22.765625 L 26.0625 -13.390625 L 15.96875 -13.390625 L 15.96875 -9.84375 L 27.390625 -9.84375 L 27.390625 0 L 2.765625 0 Z M 2.765625 -36.046875 "/></g></g></g><g fill="#003093" fill-opacity="1"><g transform="translate(112.936441, 39.996861)"><g><path d="M 2.765625 -36.046875 L 15.34375 -36.046875 L 27.109375 -16.0625 L 27.484375 -16.0625 L 26.78125 -20.375 C 26.519531 -22.09375 26.390625 -23.71875 26.390625 -25.25 L 26.390625 -36.046875 L 38.921875 -36.046875 L 38.921875 0 L 26.390625 0 L 14.875 -18.9375 L 14.484375 -18.9375 C 14.710938 -17.6875 14.90625 -16.472656 15.0625 -15.296875 C 15.21875 -14.117188 15.296875 -12.925781 15.296875 -11.71875 L 15.296875 0 L 2.765625 0 Z M 2.765625 -36.046875 "/></g></g></g><g fill="#003093" fill-opacity="1"><g transform="translate(154.621994, 39.996861)"><g><path d="M 0.484375 -36.046875 L 28.015625 -36.046875 L 28.015625 -24.34375 L 20.796875 -24.671875 L 20.796875 0 L 7.703125 0 L 7.703125 -24.671875 L 0.484375 -24.34375 Z M 0.484375 -36.046875 "/></g></g></g></g></g><g transform="matrix(1, 0, 0, 1, 55, 107)"><g clip-path="url(#1771fa2d6f)"><g fill="#8dcbf2" fill-opacity="1"><g transform="translate(2.210993, 29.413748)"><g><path d="M 3.71875 0 L 3.71875 -23.421875 L 19.53125 -23.421875 L 19.53125 -21.3125 L 5.984375 -21.3125 L 5.984375 -12.8125 L 17.875 -12.8125 L 17.875 -10.703125 L 5.984375 -10.703125 L 5.984375 0 Z M 3.71875 0 "/></g></g></g><g fill="#8dcbf2" fill-opacity="1"><g transform="translate(23.777018, 29.413748)"><g><path d="M 1.140625 0 L 9.84375 -23.421875 L 11.75 -23.421875 L 20.4375 0 L 17.96875 0 L 15.96875 -5.65625 L 5.65625 -5.65625 L 3.625 0 Z M 6.359375 -7.625 L 15.265625 -7.625 L 10.796875 -20.234375 Z M 6.359375 -7.625 "/></g></g></g><g fill="#8dcbf2" fill-opacity="1"><g transform="translate(46.718546, 29.413748)"><g><path d="M 12.8125 0.25 C 11.0625 0.25 9.523438 -0.046875 8.203125 -0.640625 C 6.878906 -1.234375 5.769531 -2.066406 4.875 -3.140625 C 3.988281 -4.210938 3.320312 -5.476562 2.875 -6.9375 C 2.425781 -8.40625 2.203125 -10.007812 2.203125 -11.75 C 2.203125 -13.476562 2.425781 -15.070312 2.875 -16.53125 C 3.332031 -17.988281 4.007812 -19.25 4.90625 -20.3125 C 5.800781 -21.382812 6.921875 -22.21875 8.265625 -22.8125 C 9.609375 -23.40625 11.164062 -23.703125 12.9375 -23.703125 C 15.257812 -23.703125 17.210938 -23.164062 18.796875 -22.09375 C 20.390625 -21.03125 21.617188 -19.453125 22.484375 -17.359375 L 20.34375 -16.5 C 19.757812 -18.25 18.847656 -19.519531 17.609375 -20.3125 C 16.367188 -21.113281 14.804688 -21.515625 12.921875 -21.515625 C 11.046875 -21.515625 9.476562 -21.113281 8.21875 -20.3125 C 6.957031 -19.507812 6.015625 -18.378906 5.390625 -16.921875 C 4.765625 -15.472656 4.453125 -13.773438 4.453125 -11.828125 C 4.453125 -10.441406 4.613281 -9.144531 4.9375 -7.9375 C 5.257812 -6.726562 5.753906 -5.675781 6.421875 -4.78125 C 7.097656 -3.882812 7.960938 -3.179688 9.015625 -2.671875 C 10.078125 -2.171875 11.34375 -1.921875 12.8125 -1.921875 C 14.65625 -1.921875 16.191406 -2.328125 17.421875 -3.140625 C 18.660156 -3.960938 19.65625 -5.25 20.40625 -7 L 22.515625 -6.125 C 21.597656 -4.039062 20.320312 -2.457031 18.6875 -1.375 C 17.050781 -0.289062 15.09375 0.25 12.8125 0.25 Z M 12.8125 0.25 "/></g></g></g><g fill="#8dcbf2" fill-opacity="1"><g transform="translate(72.974467, 29.413748)"><g><path d="M 9.25 0 L 9.25 -21.359375 L 1.078125 -21.359375 L 1.078125 -23.421875 L 19.6875 -23.421875 L 19.6875 -21.359375 L 11.515625 -21.359375 L 11.515625 0 Z M 9.25 0 "/></g></g></g><g fill="#8dcbf2" fill-opacity="1"><g transform="translate(95.352586, 29.413748)"><g><path d="M 12.890625 0.25 C 11.429688 0.25 10.125 0.0390625 8.96875 -0.375 C 7.8125 -0.789062 6.804688 -1.375 5.953125 -2.125 C 5.109375 -2.875 4.40625 -3.75 3.84375 -4.75 C 3.28125 -5.757812 2.859375 -6.851562 2.578125 -8.03125 C 2.304688 -9.21875 2.171875 -10.445312 2.171875 -11.71875 C 2.171875 -13 2.304688 -14.226562 2.578125 -15.40625 C 2.859375 -16.582031 3.28125 -17.671875 3.84375 -18.671875 C 4.40625 -19.679688 5.109375 -20.554688 5.953125 -21.296875 C 6.804688 -22.046875 7.8125 -22.625 8.96875 -23.03125 C 10.125 -23.445312 11.429688 -23.65625 12.890625 -23.65625 C 14.359375 -23.65625 15.671875 -23.445312 16.828125 -23.03125 C 17.984375 -22.625 18.988281 -22.046875 19.84375 -21.296875 C 20.695312 -20.554688 21.40625 -19.679688 21.96875 -18.671875 C 22.53125 -17.671875 22.945312 -16.582031 23.21875 -15.40625 C 23.5 -14.226562 23.640625 -13 23.640625 -11.71875 C 23.640625 -10.445312 23.5 -9.21875 23.21875 -8.03125 C 22.945312 -6.851562 22.53125 -5.757812 21.96875 -4.75 C 21.40625 -3.75 20.695312 -2.875 19.84375 -2.125 C 18.988281 -1.375 17.984375 -0.789062 16.828125 -0.375 C 15.671875 0.0390625 14.359375 0.25 12.890625 0.25 Z M 12.890625 -1.796875 C 14.359375 -1.796875 15.625 -2.054688 16.6875 -2.578125 C 17.75 -3.097656 18.613281 -3.816406 19.28125 -4.734375 C 19.957031 -5.648438 20.457031 -6.707031 20.78125 -7.90625 C 21.101562 -9.101562 21.265625 -10.375 21.265625 -11.71875 C 21.265625 -13.050781 21.101562 -14.3125 20.78125 -15.5 C 20.457031 -16.695312 19.957031 -17.753906 19.28125 -18.671875 C 18.613281 -19.597656 17.75 -20.320312 16.6875 -20.84375 C 15.625 -21.375 14.359375 -21.640625 12.890625 -21.640625 C 11.429688 -21.640625 10.175781 -21.375 9.125 -20.84375 C 8.082031 -20.320312 7.21875 -19.597656 6.53125 -18.671875 C 5.851562 -17.753906 5.351562 -16.695312 5.03125 -15.5 C 4.71875 -14.3125 4.5625 -13.050781 4.5625 -11.71875 C 4.5625 -10.375 4.71875 -9.101562 5.03125 -7.90625 C 5.351562 -6.707031 5.851562 -5.648438 6.53125 -4.734375 C 7.21875 -3.816406 8.082031 -3.097656 9.125 -2.578125 C 10.175781 -2.054688 11.429688 -1.796875 12.890625 -1.796875 Z M 12.890625 -1.796875 "/></g></g></g><g fill="#8dcbf2" fill-opacity="1"><g transform="translate(123.56398, 29.413748)"><g><path d="M 3.71875 0 L 3.71875 -23.421875 L 10.28125 -23.421875 C 11.40625 -23.421875 12.441406 -23.273438 13.390625 -22.984375 C 14.335938 -22.691406 15.160156 -22.265625 15.859375 -21.703125 C 16.554688 -21.148438 17.097656 -20.46875 17.484375 -19.65625 C 17.867188 -18.851562 18.0625 -17.929688 18.0625 -16.890625 C 18.0625 -15.835938 17.859375 -14.898438 17.453125 -14.078125 C 17.054688 -13.265625 16.484375 -12.582031 15.734375 -12.03125 C 14.992188 -11.488281 14.117188 -11.097656 13.109375 -10.859375 L 19.59375 0 L 17 0 L 10.890625 -10.625 C 10.410156 -10.59375 9.882812 -10.578125 9.3125 -10.578125 L 5.984375 -10.578125 L 5.984375 0 Z M 6 -12.46875 L 10.453125 -12.46875 C 12.171875 -12.488281 13.488281 -12.875 14.40625 -13.625 C 15.332031 -14.382812 15.796875 -15.460938 15.796875 -16.859375 C 15.796875 -18.273438 15.304688 -19.378906 14.328125 -20.171875 C 13.347656 -20.960938 12.003906 -21.359375 10.296875 -21.359375 L 6 -21.359375 Z M 6 -12.46875 "/></g></g></g><g fill="#8dcbf2" fill-opacity="1"><g transform="translate(146.555284, 29.413748)"><g><path d="M 9.828125 0 L 9.828125 -8.953125 L 0.90625 -23.421875 L 3.65625 -23.421875 L 10.984375 -11.171875 L 18.328125 -23.421875 L 21.09375 -23.421875 L 12.1875 -8.953125 L 12.1875 0 Z M 9.828125 0 "/></g></g></g></g></g></svg>