<svg xmlns="http://www.w3.org/2000/svg" viewBox="0 0 960 560" fill="none" role="img" aria-labelledby="title desc">
  <title id="title">D-FLD-03 Folder Tree</title>
  <desc id="desc">Project folder structure showing required files and setup actions for duplicate, rename, and mission file completion.</desc>
  <style>
    .ink { stroke: #111111; }
    .paper { fill: #FFFFFF; }
    .label { fill: #111111; font-family: 'IBM Plex Sans', sans-serif; }
    .mono { fill: #111111; font-family: 'IBM Plex Mono', monospace; }
    .title { font-size: 26px; font-weight: 700; }
    .subtitle { font-size: 14px; font-weight: 500; }
    .tree { font-size: 20px; font-weight: 500; }
    .hint { font-size: 14px; font-weight: 500; }
    .badge { font-size: 15px; font-weight: 700; }
  </style>

  <rect x="18" y="18" width="924" height="524" rx="18" class="paper ink" stroke-width="2.5"/>
  <text x="46" y="62" class="label title">D-FLD-03 FOLDER STRUCTURE</text>
  <text x="46" y="86" class="mono subtitle">FIND, RENAME, THEN COMPLETE MISSION.MD</text>

  <rect x="46" y="114" width="518" height="392" rx="14" class="paper ink" stroke-width="2.5"/>
  <image href="../icons/folder.svg" x="74" y="146" width="28" height="28"/>
  <text x="114" y="167" class="mono tree">your-project-name/</text>

  <path d="M82 178V456" class="ink" stroke-width="2"/>

  <path d="M82 216H112" class="ink" stroke-width="2"/>
  <image href="../icons/file.svg" x="124" y="198" width="24" height="24"/>
  <text x="158" y="216" class="mono tree">mission.md</text>
  <text x="350" y="216" class="label hint">required first</text>

  <path d="M82 260H112" class="ink" stroke-width="2"/>
  <image href="../icons/file.svg" x="124" y="242" width="24" height="24"/>
  <text x="158" y="260" class="mono tree">kernel.md</text>

  <path d="M82 304H112" class="ink" stroke-width="2"/>
  <image href="../icons/file.svg" x="124" y="286" width="24" height="24"/>
  <text x="158" y="304" class="mono tree">agentCom.md</text>

  <path d="M82 348H112" class="ink" stroke-width="2"/>
  <image href="../icons/folder.svg" x="124" y="330" width="24" height="24"/>
  <text x="158" y="348" class="mono tree">assets/</text>

  <path d="M82 392H112" class="ink" stroke-width="2"/>
  <image href="../icons/folder.svg" x="124" y="374" width="24" height="24"/>
  <text x="158" y="392" class="mono tree">steps/</text>

  <path d="M82 436H112" class="ink" stroke-width="2"/>
  <image href="../icons/file.svg" x="124" y="418" width="24" height="24"/>
  <text x="158" y="436" class="mono tree">starter-kit.zip</text>

  <rect x="588" y="114" width="326" height="392" rx="14" class="paper ink" stroke-width="2.5"/>

  <rect x="614" y="140" width="274" height="70" rx="10" class="paper ink" stroke-width="2"/>
  <circle cx="638" cy="175" r="15" class="paper ink" stroke-width="2"/>
  <text x="633" y="180" class="mono badge">1</text>
  <text x="664" y="180" class="label tree">Download starter set</text>

  <rect x="614" y="226" width="274" height="70" rx="10" class="paper ink" stroke-width="2"/>
  <circle cx="638" cy="261" r="15" class="paper ink" stroke-width="2"/>
  <text x="633" y="266" class="mono badge">2</text>
  <text x="664" y="266" class="label tree">Find Folder</text>

  <rect x="614" y="312" width="274" height="70" rx="10" class="paper ink" stroke-width="2"/>
  <circle cx="638" cy="347" r="15" class="paper ink" stroke-width="2"/>
  <text x="633" y="352" class="mono badge">3</text>
  <text x="664" y="352" class="label tree">Rename to project</text>

  <rect x="614" y="398" width="274" height="70" rx="10" class="paper ink" stroke-width="2"/>
  <circle cx="638" cy="433" r="15" class="paper ink" stroke-width="2"/>
  <text x="633" y="438" class="mono badge">4</text>
  <text x="664" y="438" class="label tree">Open mission.md</text>

  <path d="M751 210V226" class="ink" stroke-width="2"/>
  <path d="M751 296V312" class="ink" stroke-width="2"/>
  <path d="M751 382V398" class="ink" stroke-width="2"/>
</svg>
